<?xml version="1.0" encoding="utf-8"?>
<!-- Generator: Adobe Illustrator 18.1.1, SVG Export Plug-In . SVG Version: 6.00 Build 0)  -->
<svg version="1.1" id="Layer_1" xmlns="http://www.w3.org/2000/svg" xmlns:xlink="http://www.w3.org/1999/xlink" x="0px" y="0px"
	 viewBox="0 0 148.4 89.2" enable-background="new 0 0 148.4 89.2" xml:space="preserve">
<g>
	<line fill="#FFFFFF" x1="0" y1="23.2" x2="108.6" y2="23.2"/>
	<g>
		<polygon fill="#29A8E0" points="0,23.2 2.1,23.2 2.1,23.2 		"/>
		<polygon fill="#29A8E0" points="6.3,23.1 10.5,23.1 10.5,23.2 6.3,23.2 		"/>
		<polygon fill="#29A8E0" points="14.7,23.1 18.8,23.1 18.8,23.3 14.7,23.3 		"/>
		<polygon fill="#29A8E0" points="23,23.1 27.2,23.1 27.2,23.3 23,23.3 		"/>
		<polygon fill="#29A8E0" points="31.4,23.1 35.5,23 35.5,23.3 31.4,23.3 		"/>
		<polygon fill="#29A8E0" points="39.7,23 43.9,23 43.9,23.3 39.7,23.3 		"/>
		<polygon fill="#29A8E0" points="48.1,23 52.2,23 52.2,23.3 48.1,23.3 		"/>
		<polygon fill="#29A8E0" points="56.4,23 60.6,23 60.6,23.3 56.4,23.3 		"/>
		<polygon fill="#29A8E0" points="64.8,23 68.9,23 68.9,23.3 64.8,23.3 		"/>
		<polygon fill="#29A8E0" points="73.1,23 77.3,23.1 77.3,23.3 73.1,23.3 		"/>
		<polygon fill="#29A8E0" points="81.5,23.1 85.6,23.1 85.6,23.3 81.5,23.3 		"/>
		<polygon fill="#29A8E0" points="89.8,23.1 94,23.1 94,23.3 89.8,23.3 		"/>
		<polygon fill="#29A8E0" points="98.2,23.1 102.3,23.1 102.3,23.2 98.2,23.2 		"/>
		<polygon fill="#29A8E0" points="106.5,23.2 108.6,23.2 106.5,23.2 		"/>
	</g>
</g>
<g>
	<line fill="#FFFFFF" x1="0" y1="65.2" x2="148.4" y2="65.2"/>
	<g>
		<polygon fill="#29A8E0" points="0,65.2 2.1,65.2 2.1,65.2 		"/>
		<polygon fill="#29A8E0" points="6.5,65.2 10.9,65.1 10.9,65.2 6.5,65.2 		"/>
		<polygon fill="#29A8E0" points="15.2,65.1 19.6,65.1 19.6,65.3 15.2,65.2 		"/>
		<polygon fill="#29A8E0" points="24,65.1 28.3,65.1 28.3,65.3 24,65.3 		"/>
		<polygon fill="#29A8E0" points="32.7,65.1 37.1,65.1 37.1,65.3 32.7,65.3 		"/>
		<polygon fill="#29A8E0" points="41.4,65.1 45.8,65.1 45.8,65.3 41.4,65.3 		"/>
		<polygon fill="#29A8E0" points="50.2,65 54.5,65 54.5,65.3 50.2,65.3 		"/>
		<polygon fill="#29A8E0" points="58.9,65 63.3,65 63.3,65.3 58.9,65.3 		"/>
		<polygon fill="#29A8E0" points="67.6,65 72,65 72,65.3 67.6,65.3 		"/>
		<polygon fill="#29A8E0" points="76.4,65 80.7,65 80.7,65.3 76.4,65.3 		"/>
		<polygon fill="#29A8E0" points="85.1,65 89.5,65 89.5,65.3 85.1,65.3 		"/>
		<polygon fill="#29A8E0" points="93.8,65 98.2,65 98.2,65.3 93.8,65.3 		"/>
		<polygon fill="#29A8E0" points="102.6,65.1 106.9,65.1 106.9,65.3 102.6,65.3 		"/>
		<polygon fill="#29A8E0" points="111.3,65.1 115.7,65.1 115.7,65.3 111.3,65.3 		"/>
		<polygon fill="#29A8E0" points="120,65.1 124.4,65.1 124.4,65.3 120,65.3 		"/>
		<polygon fill="#29A8E0" points="128.8,65.1 133.1,65.1 133.1,65.2 128.8,65.3 		"/>
		<polygon fill="#29A8E0" points="137.5,65.1 141.9,65.2 141.9,65.2 137.5,65.2 		"/>
		<polygon fill="#29A8E0" points="146.2,65.2 148.4,65.2 146.2,65.2 		"/>
	</g>
</g>
<g>
	<path fill="#29A8E0" d="M86.3,33v-1.6h-2.7v-0.5l2.6-3.7H87v3.6h0.8v0.6H87V33H86.3z M86.3,30.8v-2c0-0.3,0-0.6,0-0.9h0
		c-0.2,0.3-0.3,0.6-0.5,0.9l-1.4,2v0H86.3z"/>
	<path fill="#29A8E0" d="M88.5,33v-0.5l0.6-0.6c1.5-1.4,2.2-2.2,2.2-3.1c0-0.6-0.3-1.1-1.2-1.1c-0.5,0-1,0.3-1.2,0.5l-0.3-0.6
		c0.4-0.3,1-0.6,1.7-0.6c1.3,0,1.8,0.9,1.8,1.7c0,1.1-0.8,2-2,3.1l-0.5,0.4v0h2.6V33H88.5z"/>
	<path fill="#29A8E0" d="M93.3,30.1c0-0.6,0-1,0-1.4H94l0,0.7h0c0.3-0.5,0.8-0.8,1.5-0.8c1.1,0,1.8,0.9,1.8,2.2c0,1.6-1,2.3-2,2.3
		c-0.6,0-1.1-0.3-1.3-0.7h0v2.4h-0.8V30.1z M94.1,31.3c0,0.1,0,0.2,0,0.3c0.1,0.5,0.6,0.9,1.2,0.9c0.8,0,1.3-0.7,1.3-1.7
		c0-0.9-0.5-1.6-1.3-1.6c-0.5,0-1,0.4-1.2,1c0,0.1-0.1,0.2-0.1,0.3V31.3z"/>
	<path fill="#29A8E0" d="M98.7,28.7l0.6,0.9c0.2,0.2,0.3,0.5,0.4,0.7h0c0.1-0.3,0.3-0.5,0.4-0.7l0.6-0.9h0.9l-1.5,2.1l1.5,2.3h-0.9
		l-0.6-1c-0.2-0.3-0.3-0.5-0.5-0.8h0c-0.1,0.3-0.3,0.5-0.5,0.8l-0.6,1h-0.9l1.5-2.2l-1.5-2.1H98.7z"/>
</g>
<g>
	<path fill="#29A8E0" d="M51.7,17.7v-0.5l0.6-0.6c1.5-1.4,2.2-2.2,2.2-3.1c0-0.6-0.3-1.1-1.2-1.1c-0.5,0-1,0.3-1.2,0.5l-0.3-0.6
		c0.4-0.3,1-0.6,1.7-0.6c1.3,0,1.8,0.9,1.8,1.7c0,1.1-0.8,2-2,3.1L52.8,17v0h2.6v0.7H51.7z"/>
	<path fill="#29A8E0" d="M60.2,14.7c0,2-0.7,3.1-2,3.1c-1.1,0-1.9-1.1-1.9-3c0-2,0.8-3,2-3C59.5,11.7,60.2,12.8,60.2,14.7z M57,14.8
		c0,1.5,0.5,2.4,1.2,2.4c0.8,0,1.2-0.9,1.2-2.4c0-1.4-0.4-2.4-1.2-2.4C57.6,12.4,57,13.2,57,14.8z"/>
	<path fill="#29A8E0" d="M64.8,14.7c0,2-0.7,3.1-2,3.1c-1.1,0-1.9-1.1-1.9-3c0-2,0.8-3,2-3C64.1,11.7,64.8,12.8,64.8,14.7z
		 M61.7,14.8c0,1.5,0.5,2.4,1.2,2.4c0.8,0,1.2-0.9,1.2-2.4c0-1.4-0.4-2.4-1.2-2.4C62.2,12.4,61.7,13.2,61.7,14.8z"/>
	<path fill="#29A8E0" d="M65.8,14.8c0-0.6,0-1,0-1.4h0.7l0,0.7h0c0.3-0.5,0.8-0.8,1.5-0.8c1.1,0,1.8,0.9,1.8,2.2c0,1.6-1,2.3-2,2.3
		c-0.6,0-1.1-0.3-1.3-0.7h0v2.4h-0.8V14.8z M66.6,15.9c0,0.1,0,0.2,0,0.3c0.1,0.5,0.6,0.9,1.2,0.9c0.8,0,1.3-0.7,1.3-1.7
		c0-0.9-0.5-1.6-1.3-1.6c-0.5,0-1,0.4-1.2,1c0,0.1-0.1,0.2-0.1,0.3V15.9z"/>
	<path fill="#29A8E0" d="M71.2,13.3l0.6,0.9c0.2,0.2,0.3,0.5,0.4,0.7h0c0.1-0.3,0.3-0.5,0.4-0.7l0.6-0.9h0.9l-1.5,2.1l1.5,2.3h-0.9
		l-0.6-1c-0.2-0.3-0.3-0.5-0.5-0.8h0c-0.1,0.3-0.3,0.5-0.5,0.8l-0.6,1h-0.9l1.5-2.2l-1.5-2.1H71.2z"/>
</g>
<g>
	<line fill="#FFFFFF" x1="78.7" y1="89.2" x2="78.7" y2="0"/>
	<g>
		<polygon fill="#29A8E0" points="78.7,89.2 78.6,87.1 78.7,87.1 		"/>
		<polygon fill="#29A8E0" points="78.6,83.1 78.6,79 78.7,79 78.7,83.1 		"/>
		<polygon fill="#29A8E0" points="78.6,75 78.5,70.9 78.8,70.9 78.7,75 		"/>
		<polygon fill="#29A8E0" points="78.5,66.9 78.5,62.8 78.8,62.8 78.8,66.9 		"/>
		<polygon fill="#29A8E0" points="78.5,58.8 78.5,54.7 78.8,54.7 78.8,58.8 		"/>
		<polygon fill="#29A8E0" points="78.5,50.7 78.5,46.6 78.8,46.6 78.8,50.7 		"/>
		<polygon fill="#29A8E0" points="78.5,42.6 78.5,38.6 78.8,38.6 78.8,42.6 		"/>
		<polygon fill="#29A8E0" points="78.5,34.5 78.5,30.5 78.8,30.5 78.8,34.5 		"/>
		<polygon fill="#29A8E0" points="78.5,26.4 78.5,22.4 78.8,22.4 78.8,26.4 		"/>
		<polygon fill="#29A8E0" points="78.5,18.3 78.6,14.3 78.7,14.3 78.8,18.3 		"/>
		<polygon fill="#29A8E0" points="78.6,10.2 78.6,6.2 78.7,6.2 78.7,10.2 		"/>
		<polygon fill="#29A8E0" points="78.6,2.1 78.7,0 78.7,2.1 		"/>
	</g>
</g>
</svg>
