<?xml version="1.0" encoding="utf-8"?>
<!-- Generator: Adobe Illustrator 18.1.1, SVG Export Plug-In . SVG Version: 6.00 Build 0)  -->
<svg xmlns="http://www.w3.org/2000/svg" x="0px" y="0px"
	 viewBox="0 0 1383.1 60">
<g>
	<g>
		<line fill="none" stroke="#B5B5B5" stroke-miterlimit="10" x1="63.3" y1="26.6" x2="65.2" y2="26.6"/>
		
			<line fill="none" stroke="#B5B5B5" stroke-miterlimit="10" stroke-dasharray="3.9841,3.9841" x1="69.2" y1="26.6" x2="1342.1" y2="26.6"/>
		<line fill="none" stroke="#B5B5B5" stroke-miterlimit="10" x1="1344.1" y1="26.6" x2="1346.1" y2="26.6"/>
	</g>
</g>
<path fill="#676767" d="M177.8,18.9c-0.5,1.4,0.3,3,1.7,3.5c1.6,0.7,3.7,1.1,5.5,3.4l0.8,1l-0.7,0.9c-1.8,2.3-3.9,2.6-5.5,3.4
	c-1.4,0.5-2.2,2.1-1.7,3.5c0.4,1.4,2.1,2,3.4,1.6c1.4-0.3,2.5-1.7,2.2-3c-0.3-1.4-0.8-1.2-0.9-1.7c-0.2-0.7,1.9-1.1,4.7-3.1l0.1-0.1
	l7.8,5.4c1.1,0.7,2.6,1.1,4,0.2l-9.8-7.1l9.9-7.1c-1.4-0.9-2.9-0.5-4,0.2l-7.9,5.5l-0.2-0.1c-2.8-2-4.9-2.5-4.7-3.1
	c0.2-0.5,0.6-0.3,0.9-1.7c0.3-1.4-0.8-2.7-2.2-3C179.8,16.8,178.2,17.5,177.8,18.9z M180.8,31.5c1.6,0,2.3,2.1,1.1,3.2
	c-0.8,0.8-2.5,0.8-3.1-0.3C178,33.1,179.3,31.4,180.8,31.5z M181.8,18.5c1.2,1.2,0.5,3.2-1.1,3.2c-1.5,0.1-2.8-1.7-1.9-3
	C179.3,17.7,181,17.7,181.8,18.5z"/>
</svg>
